<svg xmlns="http://www.w3.org/2000/svg" viewBox="0 0 64 64" fill="none">
  <defs>
    <linearGradient id="shield" x1="0%" y1="0%" x2="100%" y2="100%">
      <stop offset="0%" style="stop-color:#06b6d4"/>
      <stop offset="100%" style="stop-color:#8b5cf6"/>
    </linearGradient>
  </defs>
  <path d="M32 4 L56 16 V36 C56 50 44 58 32 62 C20 58 8 50 8 36 V16 Z" fill="url(#shield)" opacity="0.9"/>
  <path d="M32 10 L50 20 V36 C50 47 41 53 32 56 C23 53 14 47 14 36 V20 Z" fill="#0a0e1a"/>
  <path d="M24 30 L30 30 L32 22 L34 30 L40 30 L35 35 L37 42 L32 37 L27 42 L29 35 Z" fill="#06b6d4"/>
  <circle cx="32" cy="32" r="3" fill="#8b5cf6" opacity="0.8"/>
</svg>